<mxfile host="65bd71144e">
    <diagram id="C5RBs43oDa-KdzZeNtuy" name="Page-1">
        <mxGraphModel dx="1223" dy="898" grid="1" gridSize="10" guides="1" tooltips="1" connect="1" arrows="1" fold="1" page="1" pageScale="1" pageWidth="827" pageHeight="1169" math="0" shadow="0">
            <root>
                <mxCell id="WIyWlLk6GJQsqaUBKTNV-0"/>
                <mxCell id="WIyWlLk6GJQsqaUBKTNV-1" parent="WIyWlLk6GJQsqaUBKTNV-0"/>

                <!-- Title -->
                <mxCell id="0" value="小智ESP32服务器 - 意图与对话系统架构" style="rounded=0;whiteSpace=wrap;html=1;fontSize=16;fontStyle=1" vertex="1" parent="WIyWlLk6GJQsqaUBKTNV-1">
                    <mxGeometry x="160" y="40" width="400" height="40" as="geometry"/>
                </mxCell>

                <!-- Audio Input -->
                <mxCell id="1" value="语音输入" style="rounded=1;whiteSpace=wrap;html=1;fontStyle=0" vertex="1" parent="WIyWlLk6GJQsqaUBKTNV-1">
                    <mxGeometry x="200" y="120" width="120" height="40" as="geometry"/>
                </mxCell>

                <!-- ASR -->
                <mxCell id="2" value="ASR语音转文本" style="rounded=1;whiteSpace=wrap;html=1;fontStyle=0" vertex="1" parent="WIyWlLk6GJQsqaUBKTNV-1">
                    <mxGeometry x="200" y="180" width="120" height="40" as="geometry"/>
                </mxCell>

                <!-- Start to Chat -->
                <mxCell id="3" value="startToChat入口" style="rhombus;whiteSpace=wrap;html=1;fontStyle=0" vertex="1" parent="WIyWlLk6GJQsqaUBKTNV-1">
                    <mxGeometry x="190" y="240" width="140" height="80" as="geometry"/>
                </mxCell>

                <!-- Handle User Intent -->
                <mxCell id="4" value="handle_user_intent&#xa;意图识别" style="rounded=1;whiteSpace=wrap;html=1;fontStyle=0" vertex="1" parent="WIyWlLk6GJQsqaUBKTNV-1">
                    <mxGeometry x="190" y="350" width="140" height="50" as="geometry"/>
                </mxCell>

                <!-- Intent Mode Decision -->
                <mxCell id="5" value="意图模式配置" style="rhombus;whiteSpace=wrap;html=1;fontStyle=0" vertex="1" parent="WIyWlLk6GJQsqaUBKTNV-1">
                    <mxGeometry x="180" y="430" width="160" height="80" as="geometry"/>
                </mxCell>

                <!-- Intent_LLM Path -->
                <mxCell id="6" value="intent_llm模式" style="rounded=1;whiteSpace=wrap;html=1;fontStyle=0;fillColor=#dae8fc;strokeColor=#6c8ebf" vertex="1" parent="WIyWlLk6GJQsqaUBKTNV-1">
                    <mxGeometry x="40" y="550" width="120" height="40" as="geometry"/>
                </mxCell>

                <!-- Function Call Path -->
                <mxCell id="7" value="function_call模式" style="rounded=1;whiteSpace=wrap;html=1;fontStyle=0;fillColor=#dae8fc;strokeColor=#6c8ebf" vertex="1" parent="WIyWlLk6GJQsqaUBKTNV-1">
                    <mxGeometry x="200" y="550" width="120" height="40" as="geometry"/>
                </mxCell>

                <!-- Direct Chat Path -->
                <mxCell id="8" value="直接进入聊天" style="rounded=1;whiteSpace=wrap;html=1;fontStyle=0;fillColor=#dae8fc;strokeColor=#6c8ebf" vertex="1" parent="WIyWlLk6GJQsqaUBKTNV-1">
                    <mxGeometry x="360" y="550" width="120" height="40" as="geometry"/>
                </mxCell>

                <!-- Detect Intent -->
                <mxCell id="9" value="conn.intent.detect_intent" style="rounded=1;whiteSpace=wrap;html=1;fontStyle=0;fillColor=#fff2cc;strokeColor=#d6b656" vertex="1" parent="WIyWlLk6GJQsqaUBKTNV-1">
                    <mxGeometry x="40" y="620" width="120" height="50" as="geometry"/>
                </mxCell>

                <!-- Build Prompt -->
                <mxCell id="10" value="打包最近4轮对话&#xa;+动态函数列表" style="rounded=1;whiteSpace=wrap;html=1;fontStyle=0;fillColor=#fff2cc;strokeColor=#d6b656" vertex="1" parent="WIyWlLk6GJQsqaUBKTNV-1">
                    <mxGeometry x="40" y="690" width="120" height="50" as="geometry"/>
                </mxCell>

                <!-- LLM Response -->
                <mxCell id="11" value="LLM返回JSON结果" style="rounded=1;whiteSpace=wrap;html=1;fontStyle=0;fillColor=#fff2cc;strokeColor=#d6b656" vertex="1" parent="WIyWlLk6GJQsqaUBKTNV-1">
                    <mxGeometry x="40" y="760" width="120" height="40" as="geometry"/>
                </mxCell>

                <!-- Process Intent Result -->
                <mxCell id="12" value="process_intent_result&#xa;解析JSON" style="rounded=1;whiteSpace=wrap;html=1;fontStyle=0;fillColor=#fff2cc;strokeColor=#d6b656" vertex="1" parent="WIyWlLk6GJQsqaUBKTNV-1">
                    <mxGeometry x="40" y="820" width="120" height="50" as="geometry"/>
                </mxCell>

                <!-- Function Check -->
                <mxCell id="13" value="是否业务函数?" style="rhombus;whiteSpace=wrap;html=1;fontStyle=0;fillColor=#fff2cc;strokeColor=#d6b656" vertex="1" parent="WIyWlLk6GJQsqaUBKTNV-1">
                    <mxGeometry x="20" y="900" width="160" height="80" as="geometry"/>
                </mxCell>

                <!-- Tool Handler -->
                <mxCell id="14" value="UnifiedToolHandler&#xa;工具执行" style="rounded=1;whiteSpace=wrap;html=1;fontStyle=0;fillColor=#d5e8d4;strokeColor=#82b366" vertex="1" parent="WIyWlLk6GJQsqaUBKTNV-1">
                    <mxGeometry x="40" y="1010" width="120" height="50" as="geometry"/>
                </mxCell>

                <!-- Main Chat Channel -->
                <mxCell id="15" value="进入主聊天通道" style="rounded=1;whiteSpace=wrap;html=1;fontStyle=0;fillColor=#e1d5e7;strokeColor=#9673a6" vertex="1" parent="WIyWlLk6GJQsqaUBKTNV-1">
                    <mxGeometry x="200" y="1010" width="120" height="40" as="geometry"/>
                </mxCell>

                <!-- LLM Chat -->
                <mxCell id="16" value="conn.chat流式推理" style="rounded=1;whiteSpace=wrap;html=1;fontStyle=0;fillColor=#e1d5e7;strokeColor=#9673a6" vertex="1" parent="WIyWlLk6GJQsqaUBKTNV-1">
                    <mxGeometry x="200" y="620" width="120" height="50" as="geometry"/>
                </mxCell>

                <!-- Memory Enhancement -->
                <mxCell id="17" value="记忆增强" style="rounded=1;whiteSpace=wrap;html=1;fontStyle=0;fillColor=#e1d5e7;strokeColor=#9673a6" vertex="1" parent="WIyWlLk6GJQsqaUBKTNV-1">
                    <mxGeometry x="200" y="690" width="120" height="40" as="geometry"/>
                </mxCell>

                <!-- Result Processing -->
                <mxCell id="18" value="执行结果" style="rounded=1;whiteSpace=wrap;html=1;fontStyle=0;fillColor=#d5e8d4;strokeColor=#82b366" vertex="1" parent="WIyWlLk6GJQsqaUBKTNV-1">
                    <mxGeometry x="40" y="1090" width="120" height="40" as="geometry"/>
                </mxCell>

                <!-- Need Explanation -->
                <mxCell id="19" value="是否需要LLM转换?" style="rhombus;whiteSpace=wrap;html=1;fontStyle=0;fillColor=#d5e8d4;strokeColor=#82b366" vertex="1" parent="WIyWlLk6GJQsqaUBKTNV-1">
                    <mxGeometry x="20" y="1160" width="160" height="80" as="geometry"/>
                </mxCell>

                <!-- Reply Result -->
                <mxCell id="20" value="replyResult转换为人话" style="rounded=1;whiteSpace=wrap;html=1;fontStyle=0;fillColor=#d5e8d4;strokeColor=#82b366" vertex="1" parent="WIyWlLk6GJQsqaUBKTNV-1">
                    <mxGeometry x="40" y="1270" width="120" height="50" as="geometry"/>
                </mxCell>

                <!-- Direct Output -->
                <mxCell id="21" value="直接输出结果" style="rounded=1;whiteSpace=wrap;html=1;fontStyle=0;fillColor=#d5e8d4;strokeColor=#82b366" vertex="1" parent="WIyWlLk6GJQsqaUBKTNV-1">
                    <mxGeometry x="200" y="1270" width="120" height="40" as="geometry"/>
                </mxCell>

                <!-- Stream Output -->
                <mxCell id="22" value="流式输出" style="rounded=1;whiteSpace=wrap;html=1;fontStyle=0" vertex="1" parent="WIyWlLk6GJQsqaUBKTNV-1">
                    <mxGeometry x="360" y="690" width="120" height="40" as="geometry"/>
                </mxCell>

                <!-- TTS -->
                <mxCell id="23" value="TTS语音合成" style="rounded=1;whiteSpace=wrap;html=1;fontStyle=0" vertex="1" parent="WIyWlLk6GJQsqaUBKTNV-1">
                    <mxGeometry x="360" y="760" width="120" height="40" as="geometry"/>
                </mxCell>

                <!-- Audio Output -->
                <mxCell id="24" value="音频输出" style="rounded=1;whiteSpace=wrap;html=1;fontStyle=0" vertex="1" parent="WIyWlLk6GJQsqaUBKTNV-1">
                    <mxGeometry x="360" y="820" width="120" height="40" as="geometry"/>
                </mxCell>

                <!-- Config -->
                <mxCell id="25" value="配置管理" style="rounded=0;whiteSpace=wrap;html=1;fontStyle=1;dashed=1;dashPattern=5 5" vertex="1" parent="WIyWlLk6GJQsqaUBKTNV-1">
                    <mxGeometry x="480" y="430" width="280" height="80" as="geometry"/>
                </mxCell>

                <!-- Config Details -->
                <mxCell id="26" value="data/.config.yaml&#xa;Intent模块配置&#xa;• intent_llm模式&#xa;• function_call模式&#xa;• 禁用模式" style="text;html=1;strokeColor=none;fillColor=none;align=center;verticalAlign=middle;whiteSpace=wrap;rounded=0;fontStyle=0" vertex="1" parent="WIyWlLk6GJQsqaUBKTNV-1">
                    <mxGeometry x="490" y="440" width="260" height="60" as="geometry"/>
                </mxCell>

                <!-- Model Selection -->
                <mxCell id="27" value="模型选择" style="rounded=0;whiteSpace=wrap;html=1;fontStyle=1;dashed=1;dashPattern=5 5" vertex="1" parent="WIyWlLk6GJQsqaUBKTNV-1">
                    <mxGeometry x="480" y="620" width="280" height="80" as="geometry"/>
                </mxCell>

                <!-- Model Details -->
                <mxCell id="28" value="• 独立意图模型&#xa;• 复用主聊天模型&#xa;• 函数调用能力" style="text;html=1;strokeColor=none;fillColor=none;align=center;verticalAlign=middle;whiteSpace=wrap;rounded=0;fontStyle=0" vertex="1" parent="WIyWlLk6GJQsqaUBKTNV-1">
                    <mxGeometry x="490" y="630" width="260" height="60" as="geometry"/>
                </mxCell>

                <!-- Key Differences -->
                <mxCell id="29" value="关键差异" style="rounded=0;whiteSpace=wrap;html=1;fontStyle=1;dashed=1;dashPattern=5 5" vertex="1" parent="WIyWlLk6GJQsqaUBKTNV-1">
                    <mxGeometry x="480" y="1010" width="280" height="280" as="geometry"/>
                </mxCell>

                <!-- Differences Table -->
                <mxCell id="30" value="| 属性 | Intent_LLM | LLM Chat |
|------|------------|----------|
| 目的 | 判断动作类型 | 生成自然语言回复 |
| 输出 | 结构化JSON | 自由文本 |
| 上下文 | 最近4轮对话 | 完整对话记忆 |
| 格式 | 必须JSON | 自由文本 |
| 缓存 | 有结果缓存 | 无缓存 |
| 流式 | 不支持 | 支持流式推理 |" style="text;html=1;strokeColor=none;fillColor=none;align=left;verticalAlign=top;whiteSpace=wrap;rounded=0;fontStyle=0;fontSize=10" vertex="1" parent="WIyWlLk6GJQsqaUBKTNV-1">
                    <mxGeometry x="490" y="1020" width="260" height="260" as="geometry"/>
                </mxCell>

                <!-- Connections -->
                <mxCell id="31" value="" style="endArrow=classic;html=1;exitX=0.5;exitY=1;exitDx=0;exitDy=0;entryX=0.5;entryY=0;entryDx=0;entryDy=0;" edge="1" parent="WIyWlLk6GJQsqaUBKTNV-1" source="1" target="2">
                    <mxGeometry width="50" height="50" relative="1" as="geometry"/>
                </mxCell>

                <mxCell id="32" value="" style="endArrow=classic;html=1;exitX=0.5;exitY=1;exitDx=0;exitDy=0;entryX=0.5;entryY=0;entryDx=0;entryDy=0;" edge="1" parent="WIyWlLk6GJQsqaUBKTNV-1" source="2" target="3">
                    <mxGeometry width="50" height="50" relative="1" as="geometry"/>
                </mxCell>

                <mxCell id="33" value="" style="endArrow=classic;html=1;exitX=0.5;exitY=1;exitDx=0;exitDy=0;entryX=0.5;entryY=0;entryDx=0;entryDy=0;" edge="1" parent="WIyWlLk6GJQsqaUBKTNV-1" source="3" target="4">
                    <mxGeometry width="50" height="50" relative="1" as="geometry"/>
                </mxCell>

                <mxCell id="34" value="" style="endArrow=classic;html=1;exitX=0.5;exitY=1;exitDx=0;exitDy=0;entryX=0.5;entryY=0;entryDx=0;entryDy=0;" edge="1" parent="WIyWlLk6GJQsqaUBKTNV-1" source="4" target="5">
                    <mxGeometry width="50" height="50" relative="1" as="geometry"/>
                </mxCell>

                <mxCell id="35" value="" style="endArrow=classic;html=1;exitX=0.25;exitY=1;exitDx=0;exitDy=0;entryX=0.5;entryY=0;entryDx=0;entryDy=0;" edge="1" parent="WIyWlLk6GJQsqaUBKTNV-1" source="5" target="6">
                    <mxGeometry width="50" height="50" relative="1" as="geometry"/>
                </mxCell>

                <mxCell id="36" value="" style="endArrow=classic;html=1;exitX=0.5;exitY=1;exitDx=0;exitDy=0;entryX=0.5;entryY=0;entryDx=0;entryDy=0;" edge="1" parent="WIyWlLk6GJQsqaUBKTNV-1" source="5" target="7">
                    <mxGeometry width="50" height="50" relative="1" as="geometry"/>
                </mxCell>

                <mxCell id="37" value="" style="endArrow=classic;html=1;exitX=0.75;exitY=1;exitDx=0;exitDy=0;entryX=0.5;entryY=0;entryDx=0;entryDy=0;" edge="1" parent="WIyWlLk6GJQsqaUBKTNV-1" source="5" target="8">
                    <mxGeometry width="50" height="50" relative="1" as="geometry"/>
                </mxCell>

                <mxCell id="38" value="" style="endArrow=classic;html=1;exitX=0.5;exitY=1;exitDx=0;exitDy=0;entryX=0.5;entryY=0;entryDx=0;entryDy=0;" edge="1" parent="WIyWlLk6GJQsqaUBKTNV-1" source="6" target="9">
                    <mxGeometry width="50" height="50" relative="1" as="geometry"/>
                </mxCell>

                <mxCell id="39" value="" style="endArrow=classic;html=1;exitX=0.5;exitY=1;exitDx=0;exitDy=0;entryX=0.5;entryY=0;entryDx=0;entryDy=0;" edge="1" parent="WIyWlLk6GJQsqaUBKTNV-1" source="9" target="10">
                    <mxGeometry width="50" height="50" relative="1" as="geometry"/>
                </mxCell>

                <mxCell id="40" value="" style="endArrow=classic;html=1;exitX=0.5;exitY=1;exitDx=0;exitDy=0;entryX=0.5;entryY=0;entryDx=0;entryDy=0;" edge="1" parent="WIyWlLk6GJQsqaUBKTNV-1" source="10" target="11">
                    <mxGeometry width="50" height="50" relative="1" as="geometry"/>
                </mxCell>

                <mxCell id="41" value="" style="endArrow=classic;html=1;exitX=0.5;exitY=1;exitDx=0;exitDy=0;entryX=0.5;entryY=0;entryDx=0;entryDy=0;" edge="1" parent="WIyWlLk6GJQsqaUBKTNV-1" source="11" target="12">
                    <mxGeometry width="50" height="50" relative="1" as="geometry"/>
                </mxCell>

                <mxCell id="42" value="" style="endArrow=classic;html=1;exitX=0.5;exitY=1;exitDx=0;exitDy=0;entryX=0.5;entryY=0;entryDx=0;entryDy=0;" edge="1" parent="WIyWlLk6GJQsqaUBKTNV-1" source="12" target="13">
                    <mxGeometry width="50" height="50" relative="1" as="geometry"/>
                </mxCell>

                <mxCell id="43" value="" style="endArrow=classic;html=1;exitX=0.5;exitY=1;exitDx=0;exitDy=0;entryX=0.5;entryY=0;entryDx=0;entryDy=0;" edge="1" parent="WIyWlLk6GJQsqaUBKTNV-1" source="13" target="14">
                    <mxGeometry width="50" height="50" relative="1" as="geometry"/>
                </mxCell>

                <mxCell id="44" value="" style="endArrow=classic;html=1;exitX=1;exitY=0.5;exitDx=0;exitDy=0;entryX=0;entryY=0.5;entryDx=0;entryDy=0;" edge="1" parent="WIyWlLk6GJQsqaUBKTNV-1" source="13" target="15">
                    <mxGeometry width="50" height="50" relative="1" as="geometry"/>
                </mxCell>

                <mxCell id="45" value="" style="endArrow=classic;html=1;exitX=0.5;exitY=1;exitDx=0;exitDy=0;entryX=0.5;entryY=0;entryDx=0;entryDy=0;" edge="1" parent="WIyWlLk6GJQsqaUBKTNV-1" source="7" target="16">
                    <mxGeometry width="50" height="50" relative="1" as="geometry"/>
                </mxCell>

                <mxCell id="46" value="" style="endArrow=classic;html=1;exitX=0.5;exitY=1;exitDx=0;exitDy=0;entryX=0.5;entryY=0;entryDx=0;entryDy=0;" edge="1" parent="WIyWlLk6GJQsqaUBKTNV-1" source="16" target="17">
                    <mxGeometry width="50" height="50" relative="1" as="geometry"/>
                </mxCell>

                <mxCell id="47" value="" style="endArrow=classic;html=1;exitX=0.5;exitY=1;exitDx=0;exitDy=0;entryX=0.5;entryY=0;entryDx=0;entryDy=0;" edge="1" parent="WIyWlLk6GJQsqaUBKTNV-1" source="14" target="18">
                    <mxGeometry width="50" height="50" relative="1" as="geometry"/>
                </mxCell>

                <mxCell id="48" value="" style="endArrow=classic;html=1;exitX=0.5;exitY=1;exitDx=0;exitDy=0;entryX=0.5;entryY=0;entryDx=0;entryDy=0;" edge="1" parent="WIyWlLk6GJQsqaUBKTNV-1" source="18" target="19">
                    <mxGeometry width="50" height="50" relative="1" as="geometry"/>
                </mxCell>

                <mxCell id="49" value="" style="endArrow=classic;html=1;exitX=0.5;exitY=1;exitDx=0;exitDy=0;entryX=0.5;entryY=0;entryDx=0;entryDy=0;" edge="1" parent="WIyWlLk6GJQsqaUBKTNV-1" source="19" target="20">
                    <mxGeometry width="50" height="50" relative="1" as="geometry"/>
                </mxCell>

                <mxCell id="50" value="" style="endArrow=classic;html=1;exitX=1;exitY=0.5;exitDx=0;exitDy=0;entryX=0;entryY=0.5;entryDx=0;entryDy=0;" edge="1" parent="WIyWlLk6GJQsqaUBKTNV-1" source="19" target="21">
                    <mxGeometry width="50" height="50" relative="1" as="geometry"/>
                </mxCell>

                <mxCell id="51" value="" style="endArrow=classic;html=1;exitX=1;exitY=0.5;exitDx=0;exitDy=0;entryX=0;entryY=0.5;entryDx=0;entryDy=0;" edge="1" parent="WIyWlLk6GJQsqaUBKTNV-1" source="17" target="22">
                    <mxGeometry width="50" height="50" relative="1" as="geometry"/>
                </mxCell>

                <mxCell id="52" value="" style="endArrow=classic;html=1;exitX=1;exitY=0.5;exitDx=0;exitDy=0;entryX=0;entryY=0.5;entryDx=0;entryDy=0;" edge="1" parent="WIyWlLk6GJQsqaUBKTNV-1" source="15" target="22">
                    <mxGeometry width="50" height="50" relative="1" as="geometry"/>
                </mxCell>

                <mxCell id="53" value="" style="endArrow=classic;html=1;exitX=0.5;exitY=1;exitDx=0;exitDy=0;entryX=0.5;entryY=0;entryDx=0;entryDy=0;" edge="1" parent="WIyWlLk6GJQsqaUBKTNV-1" source="22" target="23">
                    <mxGeometry width="50" height="50" relative="1" as="geometry"/>
                </mxCell>

                <mxCell id="54" value="" style="endArrow=classic;html=1;exitX=0.5;exitY=1;exitDx=0;exitDy=0;entryX=0.5;entryY=0;entryDx=0;entryDy=0;" edge="1" parent="WIyWlLk6GJQsqaUBKTNV-1" source="23" target="24">
                    <mxGeometry width="50" height="50" relative="1" as="geometry"/>
                </mxCell>

                <mxCell id="55" value="" style="endArrow=classic;html=1;exitX=1;exitY=0.5;exitDx=0;exitDy=0;entryX=0;entryY=0.5;entryDx=0;entryDy=0;" edge="1" parent="WIyWlLk6GJQsqaUBKTNV-1" source="21" target="22">
                    <mxGeometry width="50" height="50" relative="1" as="geometry"/>
                </mxCell>

                <mxCell id="56" value="" style="endArrow=classic;html=1;exitX=1;exitY=0.5;exitDx=0;exitDy=0;entryX=0;entryY=0.5;entryDx=0;entryDy=0;" edge="1" parent="WIyWlLk6GJQsqaUBKTNV-1" source="20" target="22">
                    <mxGeometry width="50" height="50" relative="1" as="geometry"/>
                </mxCell>

                <!-- Legend -->
                <mxCell id="57" value="图例说明" style="rounded=0;whiteSpace=wrap;html=1;fontStyle=1" vertex="1" parent="WIyWlLk6GJQsqaUBKTNV-1">
                    <mxGeometry x="480" y="1320" width="280" height="140" as="geometry"/>
                </mxCell>

                <mxCell id="58" value="🔵 意图识别路径&#xa;🟡 工具执行路径&#xa;🟣 聊天对话路径&#xa;🔲 配置管理&#xa;💎 决策节点" style="text;html=1;strokeColor=none;fillColor=none;align=left;verticalAlign=top;whiteSpace=wrap;rounded=0;fontStyle=0" vertex="1" parent="WIyWlLk6GJQsqaUBKTNV-1">
                    <mxGeometry x="490" y="1330" width="260" height="120" as="geometry"/>
                </mxCell>

            </root>
        </mxGraphModel>
    </diagram>
</mxfile>